<svg xmlns="http://www.w3.org/2000/svg" xmlns:xlink="http://www.w3.org/1999/xlink" viewBox="0 0 512 512" width="362" height="362" preserveAspectRatio="xMidYMid meet" style="width: 100%; height: 100%; transform: translate3d(0px, 0px, 0px); content-visibility: visible;"><defs><clipPath id="__lottie_element_260"><rect width="512" height="512" x="0" y="0"/></clipPath><clipPath id="__lottie_element_262"><path d="M0,0 L512,0 L512,512 L0,512z"/></clipPath><g id="__lottie_element_282"><g transform="matrix(1,0,0,1,256,256)" opacity="1" style="display: block;"><g opacity="1" transform="matrix(1,0,0,1,0,0)"><path fill="rgb(244,83,148)" fill-opacity="1" d=" M0,-195 C107.62049865722656,-195 195,-107.62049865722656 195,0 C195,107.62049865722656 107.62049865722656,195 0,195 C-107.62049865722656,195 -195,107.62049865722656 -195,0 C-195,-107.62049865722656 -107.62049865722656,-195 0,-195z"/></g></g></g><mask id="__lottie_element_282_1" mask-type="alpha"><use xmlns:ns1="http://www.w3.org/1999/xlink" ns1:href="#__lottie_element_282"/></mask></defs><g clip-path="url(#__lottie_element_260)"><g clip-path="url(#__lottie_element_262)" transform="matrix(1,0,0,1,0,0)" opacity="1" style="display: block;"><g transform="matrix(1,0,0,1,256,256)" opacity="1" style="display: block;"><g opacity="1" transform="matrix(1,0,0,1,0,0)"><path fill="rgb(244,83,148)" fill-opacity="1" d=" M0,-195 C107.62049865722656,-195 195,-107.62049865722656 195,0 C195,107.62049865722656 107.62049865722656,195 0,195 C-107.62049865722656,195 -195,107.62049865722656 -195,0 C-195,-107.62049865722656 -107.62049865722656,-195 0,-195z"/></g></g><g transform="matrix(1.2012858390808105,0.22906914353370667,-0.22906914353370667,1.2012858390808105,249.18153381347656,311.5685119628906)" opacity="1" style="display: block;"><g opacity="1" transform="matrix(1,0,0,1,0,0)"><path stroke-linecap="round" stroke-linejoin="round" fill-opacity="0" stroke="rgb(101,101,101)" stroke-opacity="1" stroke-width="23" d=" M103,0.5 C142.54832458496094,28.724300384521484 152.16610717773438,-73.25550842285156 179.98989868164062,-70.64559936523438"/></g></g><g transform="matrix(0.7797607779502869,0,0,0.7797607779502869,245.01307678222656,258.8189392089844)" opacity="1" style="display: none;"><g opacity="1" transform="matrix(1,0,0,1,0,0)"><path fill="rgb(255,199,222)" fill-opacity="1" d=" M66.49400329589844,-218.23699951171875 C66.49400329589844,-218.23699951171875 6.145999908447266,-211.3159942626953 -22.104999542236328,-208.8179931640625 C-52.3390007019043,-206.1439971923828 -108.96199798583984,-202.718994140625 -108.96199798583984,-202.718994140625 C-157.9290008544922,-198.38800048828125 -194.11399841308594,-155.18299865722656 -189.7830047607422,-106.21600341796875 C-189.7830047607422,-106.21600341796875 -176.43699645996094,-20.889999389648438 -176.43699645996094,5.440999984741211 C-176.43699645996094,34.98400115966797 -177.07899475097656,83.80999755859375 -177.07899475097656,83.80999755859375 C-177.07899475097656,132.96800231933594 -141.7270050048828,176.56900024414062 -88.06999969482422,172.81900024414062 C-88.06999969482422,172.81900024414062 -29.34000015258789,169.61300659179688 0.34599998593330383,169.61300659179688 C29.374000549316406,169.61300659179688 88.06999969482422,172.81900024414062 88.06999969482422,172.81900024414062 C137.8459930419922,176.56900024414062 176.96200561523438,129.11900329589844 177.72000122070312,81.24600219726562 C177.72000122070312,81.24600219726562 178.24400329589844,20.750999450683594 175.15499877929688,-22.33799934387207 C171.76600646972656,-69.61599731445312 162.9980010986328,-137.41600036621094 162.9980010986328,-137.41600036621094 C156.44200134277344,-187.0050048828125 115.46099853515625,-222.5679931640625 66.49400329589844,-218.23699951171875z"/><path stroke-linecap="butt" stroke-linejoin="miter" fill-opacity="0" stroke-miterlimit="4" stroke="rgb(101,101,101)" stroke-opacity="1" stroke-width="6.213" d=" M66.49400329589844,-218.23699951171875 C66.49400329589844,-218.23699951171875 6.145999908447266,-211.3159942626953 -22.104999542236328,-208.8179931640625 C-52.3390007019043,-206.1439971923828 -108.96199798583984,-202.718994140625 -108.96199798583984,-202.718994140625 C-157.9290008544922,-198.38800048828125 -194.11399841308594,-155.18299865722656 -189.7830047607422,-106.21600341796875 C-189.7830047607422,-106.21600341796875 -176.43699645996094,-20.889999389648438 -176.43699645996094,5.440999984741211 C-176.43699645996094,34.98400115966797 -177.07899475097656,83.80999755859375 -177.07899475097656,83.80999755859375 C-177.07899475097656,132.96800231933594 -141.7270050048828,176.56900024414062 -88.06999969482422,172.81900024414062 C-88.06999969482422,172.81900024414062 -29.34000015258789,169.61300659179688 0.34599998593330383,169.61300659179688 C29.374000549316406,169.61300659179688 88.06999969482422,172.81900024414062 88.06999969482422,172.81900024414062 C137.8459930419922,176.56900024414062 176.96200561523438,129.11900329589844 177.72000122070312,81.24600219726562 C177.72000122070312,81.24600219726562 178.24400329589844,20.750999450683594 175.15499877929688,-22.33799934387207 C171.76600646972656,-69.61599731445312 162.9980010986328,-137.41600036621094 162.9980010986328,-137.41600036621094 C156.44200134277344,-187.0050048828125 115.46099853515625,-222.5679931640625 66.49400329589844,-218.23699951171875z"/></g></g><g style="display: none;"><g><path/><path stroke-linecap="butt" stroke-linejoin="miter" fill-opacity="0" stroke-miterlimit="4"/></g></g><g mask="url(#__lottie_element_282_1)" style="display: block;"><g transform="matrix(0.9006880521774292,0.17174917459487915,-0.17174917459487915,0.9006880521774292,244.544677734375,321.65869140625)" opacity="1"><g opacity="1" transform="matrix(1,0,0,1,0,0)"><path fill="rgb(255,199,222)" fill-opacity="1" d=" M82.9229965209961,-188.8719940185547 C82.9229965209961,-188.8719940185547 30.14699935913086,-184.8730010986328 1.812999963760376,-183.63800048828125 C-28.51099967956543,-182.3159942626953 -81.95700073242188,-181.98599243164062 -81.95700073242188,-181.98599243164062 C-132.5570068359375,-185.22500610351562 -169.33399963378906,-139.38800048828125 -167.1929931640625,-90.2770004272461 C-167.1929931640625,-90.2770004272461 -162.96600341796875,-21.48200035095215 -162.96600341796875,4.848999977111816 C-162.96600341796875,34.391998291015625 -166.17300415039062,81.93599700927734 -166.17300415039062,81.93599700927734 C-166.17300415039062,131.093994140625 -130.8209991455078,174.69400024414062 -77.16400146484375,170.94400024414062 C-77.16400146484375,170.94400024414062 -29.34000015258789,169.61300659179688 0.34599998593330383,169.61300659179688 C29.374000549316406,169.61300659179688 88.06999969482422,172.81900024414062 88.06999969482422,172.81900024414062 C126.94599914550781,182.33999633789062 182.09100341796875,138.73599243164062 177.72000122070312,91.50499725341797 C177.72000122070312,91.50499725341797 173.24600219726562,46.63399887084961 172.4320068359375,3.441999912261963 C171.6739959716797,-36.827999114990234 174.28199768066406,-97.27999877929688 174.28199768066406,-97.27999877929688 C175.52099609375,-144.55299377441406 134.64100646972656,-193.41799926757812 82.9229965209961,-188.8719940185547z"/><path stroke-linecap="butt" stroke-linejoin="miter" fill-opacity="0" stroke-miterlimit="4" stroke="rgb(101,101,101)" stroke-opacity="1" stroke-width="6.213" d=" M82.9229965209961,-188.8719940185547 C82.9229965209961,-188.8719940185547 30.14699935913086,-184.8730010986328 1.812999963760376,-183.63800048828125 C-28.51099967956543,-182.3159942626953 -81.95700073242188,-181.98599243164062 -81.95700073242188,-181.98599243164062 C-132.5570068359375,-185.22500610351562 -169.33399963378906,-139.38800048828125 -167.1929931640625,-90.2770004272461 C-167.1929931640625,-90.2770004272461 -162.96600341796875,-21.48200035095215 -162.96600341796875,4.848999977111816 C-162.96600341796875,34.391998291015625 -166.17300415039062,81.93599700927734 -166.17300415039062,81.93599700927734 C-166.17300415039062,131.093994140625 -130.8209991455078,174.69400024414062 -77.16400146484375,170.94400024414062 C-77.16400146484375,170.94400024414062 -29.34000015258789,169.61300659179688 0.34599998593330383,169.61300659179688 C29.374000549316406,169.61300659179688 88.06999969482422,172.81900024414062 88.06999969482422,172.81900024414062 C126.94599914550781,182.33999633789062 182.09100341796875,138.73599243164062 177.72000122070312,91.50499725341797 C177.72000122070312,91.50499725341797 173.24600219726562,46.63399887084961 172.4320068359375,3.441999912261963 C171.6739959716797,-36.827999114990234 174.28199768066406,-97.27999877929688 174.28199768066406,-97.27999877929688 C175.52099609375,-144.55299377441406 134.64100646972656,-193.41799926757812 82.9229965209961,-188.8719940185547z"/></g></g></g><g transform="matrix(1.0399999618530273,0,0,1.0399999618530273,235.83900451660156,240.29100036621094)" opacity="1" style="display: none;"><g opacity="1" transform="matrix(1,0,0,1,0,0)"><path stroke-linecap="round" stroke-linejoin="round" fill-opacity="0" stroke="rgb(101,101,101)" stroke-opacity="1" stroke-width="23" d=" M-91,8.5 C-126,8.5 -138.75,92.75 -178,92.75"/></g></g><g style="display: none;"><g><path stroke-linecap="round" stroke-linejoin="round" fill-opacity="0"/></g></g><g transform="matrix(1.2012858390808105,0.22906914353370667,-0.22906914353370667,1.2012858390808105,237.09243774414062,316.2064514160156)" opacity="1" style="display: block;"><g opacity="1" transform="matrix(1,0,0,1,0,0)"><path stroke-linecap="round" stroke-linejoin="round" fill-opacity="0" stroke="rgb(101,101,101)" stroke-opacity="1" stroke-width="23" d=" M-91,8.5 C-124,14 -121.99099731445312,72.29100036621094 -156.58200073242188,92.8489990234375"/></g></g><g transform="matrix(1.2036174535751343,0.21647675335407257,-0.21647675335407257,1.2036174535751343,254.35581970214844,306.9386291503906)" opacity="1" style="display: block;"><g opacity="1" transform="matrix(1,0,0,1,0,0)"><path stroke-linecap="round" stroke-linejoin="round" fill-opacity="0" stroke="rgb(101,101,101)" stroke-opacity="1" stroke-width="15" d=" M-34.5,-26 C-17.770000457763672,-2.630000114440918 21.388999938964844,-4.73799991607666 39.5,-27"/></g></g><g transform="matrix(1.2162888050079346,0.18385806679725647,-0.168536975979805,1.1149342060089111,191.083251953125,229.8350830078125)" opacity="1" style="display: block;"><g opacity="1" transform="matrix(0.2800000011920929,0,0,0.2800000011920929,0,0)"><path fill="rgb(101,101,101)" fill-opacity="1" d=" M43.95500183105469,11.484000205993652 C43.95500183105469,11.484000205993652 27.51300048828125,-9.520000457763672 0.41499999165534973,-9.520000457763672 C-26.683000564575195,-9.520000457763672 -43.95500183105469,11.484000205993652 -43.95500183105469,11.484000205993652 C-43.95500183105469,11.484000205993652 -27.32200050354004,-10.097000122070312 -0.2240000069141388,-10.097000122070312 C26.874000549316406,-10.097000122070312 43.95500183105469,11.484000205993652 43.95500183105469,11.484000205993652z"/><path stroke-linecap="round" stroke-linejoin="round" fill-opacity="0" stroke="rgb(101,101,101)" stroke-opacity="1" stroke-width="33" d=" M43.95500183105469,11.484000205993652 C43.95500183105469,11.484000205993652 27.51300048828125,-9.520000457763672 0.41499999165534973,-9.520000457763672 C-26.683000564575195,-9.520000457763672 -43.95500183105469,11.484000205993652 -43.95500183105469,11.484000205993652 C-43.95500183105469,11.484000205993652 -27.32200050354004,-10.097000122070312 -0.2240000069141388,-10.097000122070312 C26.874000549316406,-10.097000122070312 43.95500183105469,11.484000205993652 43.95500183105469,11.484000205993652z"/></g><g opacity="1" transform="matrix(0.2800000011920929,0,0,0.2800000011920929,121.58799743652344,0)"><path fill="rgb(101,101,101)" fill-opacity="1" d=" M43.95500183105469,11.484000205993652 C43.95500183105469,11.484000205993652 27.51300048828125,-9.520000457763672 0.41499999165534973,-9.520000457763672 C-26.683000564575195,-9.520000457763672 -43.95500183105469,11.484000205993652 -43.95500183105469,11.484000205993652 C-43.95500183105469,11.484000205993652 -27.32200050354004,-10.097000122070312 -0.2240000069141388,-10.097000122070312 C26.874000549316406,-10.097000122070312 43.95500183105469,11.484000205993652 43.95500183105469,11.484000205993652z"/><path stroke-linecap="round" stroke-linejoin="round" fill-opacity="0" stroke="rgb(101,101,101)" stroke-opacity="1" stroke-width="33" d=" M43.95500183105469,11.484000205993652 C43.95500183105469,11.484000205993652 27.51300048828125,-9.520000457763672 0.41499999165534973,-9.520000457763672 C-26.683000564575195,-9.520000457763672 -43.95500183105469,11.484000205993652 -43.95500183105469,11.484000205993652 C-43.95500183105469,11.484000205993652 -27.32200050354004,-10.097000122070312 -0.2240000069141388,-10.097000122070312 C26.874000549316406,-10.097000122070312 43.95500183105469,11.484000205993652 43.95500183105469,11.484000205993652z"/></g></g></g></g></svg>