<svg xmlns="http://www.w3.org/2000/svg" xmlns:xlink="http://www.w3.org/1999/xlink" viewBox="0 0 512 512" width="362" height="362" preserveAspectRatio="xMidYMid meet" style="width: 100%; height: 100%; transform: translate3d(0px, 0px, 0px); content-visibility: visible;"><defs><clipPath id="__lottie_element_2"><rect width="512" height="512" x="0" y="0"/></clipPath><linearGradient id="__lottie_element_6" spreadMethod="pad" gradientUnits="userSpaceOnUse"><stop/><stop/><stop/><stop/><stop/></linearGradient><linearGradient id="__lottie_element_16" spreadMethod="pad" gradientUnits="userSpaceOnUse" x1="-37.529998779296875" y1="-68.55999755859375" x2="45.470001220703125" y2="68.44000244140625"><stop offset="3%" stop-color="rgb(253,193,255)" stop-opacity="1"/><stop offset="5%" stop-color="rgb(253,193,255)" stop-opacity="0.6919999718666077"/><stop offset="8%" stop-color="rgb(253,193,255)" stop-opacity="0.3840000033378601"/><stop offset="11%" stop-color="rgb(253,193,255)" stop-opacity="0.19200000166893005"/><stop offset="13%" stop-color="rgb(253,193,255)" stop-opacity="0"/></linearGradient></defs><g clip-path="url(#__lottie_element_2)"><g transform="matrix(0.9967781901359558,-0.0043492927215993404,0.0043492927215993404,0.9967781901359558,253.99893188476562,256.78125)" opacity="1" style="display: block;"><g opacity="1" transform="matrix(1,0,0,1,0,0)"><path fill="rgb(244,83,148)" fill-opacity="1" d=" M100.2300033569336,-183.71800231933594 C57.6510009765625,-182.81100463867188 32.86600112915039,-160.6510009765625 6.126999855041504,-124.15899658203125 C-15.404000282287598,-150.45899963378906 -38.2667236328125,-176.0044708251953 -81.70872497558594,-180.80946350097656 C-127.12972259521484,-185.83346557617188 -190.19325256347656,-159.33029174804688 -207.5,-90.76399993896484 C-211.22286987304688,-59.834896087646484 -211.73793029785156,-40.688411712646484 -201.3256378173828,-6.75604772567749 C-189.46896362304688,32.74848175048828 -157.52818298339844,69.23419952392578 -151.1708984375,75.18806457519531 C-112.85595703125,115.4538345336914 -55.99651336669922,148.62615966796875 -12.508512496948242,170.57916259765625 C-12.508512496948242,170.57916259765625 -2.0820000171661377,176.03399658203125 6.48799991607666,176.6820068359375 C11.79800033569336,177.08299255371094 26.909000396728516,169.97300720214844 26.909000396728516,169.97300720214844 C75.51599884033203,146.0800018310547 95.26994323730469,133.7273406982422 146.69488525390625,87.58537292480469 C153.037841796875,81.32051849365234 187.1092529296875,44.445594787597656 203.54942321777344,6.450064182281494 C221.00588989257812,-33.15670394897461 219.2376251220703,-73.60094451904297 218.66873168945312,-81.62136840820312 C213.60704040527344,-135.9395294189453 161.96099853515625,-185.0330047607422 100.2300033569336,-183.71800231933594z"/><path stroke-linecap="butt" stroke-linejoin="miter" fill-opacity="0" stroke-miterlimit="4" stroke="rgb(60,60,60)" stroke-opacity="1" stroke-width="6.213" d=" M100.2300033569336,-183.71800231933594 C57.6510009765625,-182.81100463867188 32.86600112915039,-160.6510009765625 6.126999855041504,-124.15899658203125 C-15.404000282287598,-150.45899963378906 -38.2667236328125,-176.0044708251953 -81.70872497558594,-180.80946350097656 C-127.12972259521484,-185.83346557617188 -190.19325256347656,-159.33029174804688 -207.5,-90.76399993896484 C-211.22286987304688,-59.834896087646484 -211.73793029785156,-40.688411712646484 -201.3256378173828,-6.75604772567749 C-189.46896362304688,32.74848175048828 -157.52818298339844,69.23419952392578 -151.1708984375,75.18806457519531 C-112.85595703125,115.4538345336914 -55.99651336669922,148.62615966796875 -12.508512496948242,170.57916259765625 C-12.508512496948242,170.57916259765625 -2.0820000171661377,176.03399658203125 6.48799991607666,176.6820068359375 C11.79800033569336,177.08299255371094 26.909000396728516,169.97300720214844 26.909000396728516,169.97300720214844 C75.51599884033203,146.0800018310547 95.26994323730469,133.7273406982422 146.69488525390625,87.58537292480469 C153.037841796875,81.32051849365234 187.1092529296875,44.445594787597656 203.54942321777344,6.450064182281494 C221.00588989257812,-33.15670394897461 219.2376251220703,-73.60094451904297 218.66873168945312,-81.62136840820312 C213.60704040527344,-135.9395294189453 161.96099853515625,-185.0330047607422 100.2300033569336,-183.71800231933594z"/></g></g><g transform="matrix(1.319835901260376,0.020733637735247612,-0.020733637735247612,1.319835901260376,249.08543395996094,233.7554473876953)" opacity="1" style="display: none;"><g opacity="1" transform="matrix(1,0,0,1,0,0)"><path stroke-linecap="round" stroke-linejoin="round" fill-opacity="0" stroke="rgb(60,60,60)" stroke-opacity="1" stroke-width="15" d=" M-34.5,-26 C-11.5,-11 20,-13.5 39.5,-27"/></g></g><g transform="matrix(1.3156663179397583,0.014926401898264885,-0.014926401898264885,1.3156663179397583,248.9875946044922,233.81411743164062)" opacity="1" style="display: block;"><g opacity="1" transform="matrix(1,0,0,1,0,0)"><path stroke-linecap="round" stroke-linejoin="round" fill-opacity="0" stroke="rgb(60,60,60)" stroke-opacity="1" stroke-width="15" d=" M-34.5,-26 C-11.5,-11 20,-13.5 39.5,-27"/></g></g><g style="display: none;"><g><path stroke-linecap="round" stroke-linejoin="round" fill-opacity="0"/></g></g><g transform="matrix(1.4216428995132446,-0.07823774218559265,0.06770943850278854,1.2303351163864136,165.74172973632812,168.17494201660156)" opacity="1" style="display: block;"><g opacity="1" transform="matrix(0.2800000011920929,0,0,0.2800000011920929,0,0)"><path fill="rgb(60,60,60)" fill-opacity="1" d=" M37.46900177001953,0 C37.46900177001953,23.099000930786133 22.878000259399414,37.34600067138672 -0.22100000083446503,37.34600067138672 C-23.31999969482422,37.34600067138672 -37.46900177001953,23.099000930786133 -37.46900177001953,0 C-37.46900177001953,-23.099000930786133 -23.31999969482422,-36.8489990234375 -0.22100000083446503,-36.8489990234375 C22.878000259399414,-36.8489990234375 37.46900177001953,-23.099000930786133 37.46900177001953,0z"/><path stroke-linecap="round" stroke-linejoin="round" fill-opacity="0" stroke="rgb(60,60,60)" stroke-opacity="1" stroke-width="10" d=" M37.46900177001953,0 C37.46900177001953,23.099000930786133 22.878000259399414,37.34600067138672 -0.22100000083446503,37.34600067138672 C-23.31999969482422,37.34600067138672 -37.46900177001953,23.099000930786133 -37.46900177001953,0 C-37.46900177001953,-23.099000930786133 -23.31999969482422,-36.8489990234375 -0.22100000083446503,-36.8489990234375 C22.878000259399414,-36.8489990234375 37.46900177001953,-23.099000930786133 37.46900177001953,0z"/></g><g opacity="1" transform="matrix(0.2800000011920929,0,0,0.2800000011920929,121.58799743652344,0)"><path fill="rgb(60,60,60)" fill-opacity="1" d=" M37.46900177001953,0 C37.46900177001953,23.099000930786133 22.878000259399414,37.34600067138672 -0.22100000083446503,37.34600067138672 C-23.31999969482422,37.34600067138672 -37.46900177001953,23.099000930786133 -37.46900177001953,0 C-37.46900177001953,-23.099000930786133 -23.31999969482422,-36.8489990234375 -0.22100000083446503,-36.8489990234375 C22.878000259399414,-36.8489990234375 37.46900177001953,-23.099000930786133 37.46900177001953,0z"/><path stroke-linecap="round" stroke-linejoin="round" fill-opacity="0" stroke="rgb(60,60,60)" stroke-opacity="1" stroke-width="10" d=" M37.46900177001953,0 C37.46900177001953,23.099000930786133 22.878000259399414,37.34600067138672 -0.22100000083446503,37.34600067138672 C-23.31999969482422,37.34600067138672 -37.46900177001953,23.099000930786133 -37.46900177001953,0 C-37.46900177001953,-23.099000930786133 -23.31999969482422,-36.8489990234375 -0.22100000083446503,-36.8489990234375 C22.878000259399414,-36.8489990234375 37.46900177001953,-23.099000930786133 37.46900177001953,0z"/></g></g><g transform="matrix(1.3157398700714111,-0.005741034634411335,0.005741034634411335,1.3157398700714111,244.19813537597656,240.27430725097656)" opacity="1" style="display: block;"><g opacity="1" transform="matrix(1,0,0,1,0,0)"><path stroke-linecap="round" stroke-linejoin="round" fill-opacity="0" stroke="rgb(60,60,60)" stroke-opacity="1" stroke-width="23" d=" M-100.89399719238281,7.636000156402588 C-107.98200225830078,-7.892000198364258 -116.76200103759766,-42.11399841308594 -157.4290008544922,-71.36699676513672"/></g></g><g transform="matrix(1.3157398700714111,-0.005741034634411335,0.005741034634411335,1.3157398700714111,253.39683532714844,237.60264587402344)" opacity="1" style="display: block;"><g opacity="1" transform="matrix(1,0,0,1,0,0)"><path stroke-linecap="round" stroke-linejoin="round" fill-opacity="0" stroke="rgb(60,60,60)" stroke-opacity="1" stroke-width="23" d=" M97.6969985961914,9.590999603271484 C108.53800201416016,-9.21399974822998 147.54600524902344,-35.926998138427734 169.7050018310547,-56.91999816894531"/></g></g><g transform="matrix(-1,0,0,1,408.4700012207031,341.55999755859375)" opacity="1" style="display: block;"><g opacity="1" transform="matrix(1,0,0,1,0,0)"><path fill="rgb(255,221,109)" fill-opacity="1" d=" M1.3279999494552612,67.23200225830078 C5.945000171661377,14.031999588012695 14.062000274658203,5.945000171661377 67.23200225830078,1.3279999494552612 C67.58399963378906,1.3200000524520874 67.91899871826172,1.1729999780654907 68.16200256347656,0.9179999828338623 C68.40499877929688,0.6629999876022339 68.53800201416016,0.32199999690055847 68.52999877929688,-0.029999999329447746 C68.52200317382812,-0.38199999928474426 68.3740005493164,-0.7170000076293945 68.11900329589844,-0.9599999785423279 C67.86399841308594,-1.2029999494552612 67.52400207519531,-1.3359999656677246 67.1719970703125,-1.3279999494552612 C14.001999855041504,-5.945000171661377 5.883999824523926,-14.062000274658203 1.2669999599456787,-67.23200225830078 C1.2669999599456787,-67.58399963378906 1.1269999742507935,-67.9219970703125 0.878000020980835,-68.1709976196289 C0.6290000081062317,-68.41999816894531 0.29100000858306885,-68.55999755859375 -0.061000000685453415,-68.55999755859375 C-0.4129999876022339,-68.55999755859375 -0.75,-68.41999816894531 -0.9990000128746033,-68.1709976196289 C-1.2480000257492065,-67.9219970703125 -1.3880000114440918,-67.58399963378906 -1.3880000114440918,-67.23200225830078 C-5.914000034332275,-14.182999610900879 -14.031999588012695,-5.945000171661377 -67.2020034790039,-1.3279999494552612 C-67.55400085449219,-1.3279999494552612 -67.89199829101562,-1.187999963760376 -68.14099884033203,-0.9390000104904175 C-68.38999938964844,-0.6899999976158142 -68.52999877929688,-0.35199999809265137 -68.52999877929688,0 C-68.52999877929688,0.35199999809265137 -68.38999938964844,0.6899999976158142 -68.14099884033203,0.9390000104904175 C-67.89199829101562,1.187999963760376 -67.55400085449219,1.3279999494552612 -67.2020034790039,1.3279999494552612 C-14.031999588012695,5.945000171661377 -5.914999961853027,14.031999588012695 -1.3279999494552612,67.23200225830078 C-1.3279999494552612,67.58399963378906 -1.187999963760376,67.9219970703125 -0.9390000104904175,68.1709976196289 C-0.6899999976158142,68.41999816894531 -0.35199999809265137,68.55999755859375 0,68.55999755859375 C0.35199999809265137,68.55999755859375 0.6899999976158142,68.41999816894531 0.9390000104904175,68.1709976196289 C1.187999963760376,67.9219970703125 1.3279999494552612,67.58399963378906 1.3279999494552612,67.23200225830078z"/><path fill="url(#__lottie_element_16)" fill-opacity="1" d=" M1.3279999494552612,67.23200225830078 C5.945000171661377,14.031999588012695 14.062000274658203,5.945000171661377 67.23200225830078,1.3279999494552612 C67.58399963378906,1.3200000524520874 67.91899871826172,1.1729999780654907 68.16200256347656,0.9179999828338623 C68.40499877929688,0.6629999876022339 68.53800201416016,0.32199999690055847 68.52999877929688,-0.029999999329447746 C68.52200317382812,-0.38199999928474426 68.3740005493164,-0.7170000076293945 68.11900329589844,-0.9599999785423279 C67.86399841308594,-1.2029999494552612 67.52400207519531,-1.3359999656677246 67.1719970703125,-1.3279999494552612 C14.001999855041504,-5.945000171661377 5.883999824523926,-14.062000274658203 1.2669999599456787,-67.23200225830078 C1.2669999599456787,-67.58399963378906 1.1269999742507935,-67.9219970703125 0.878000020980835,-68.1709976196289 C0.6290000081062317,-68.41999816894531 0.29100000858306885,-68.55999755859375 -0.061000000685453415,-68.55999755859375 C-0.4129999876022339,-68.55999755859375 -0.75,-68.41999816894531 -0.9990000128746033,-68.1709976196289 C-1.2480000257492065,-67.9219970703125 -1.3880000114440918,-67.58399963378906 -1.3880000114440918,-67.23200225830078 C-5.914000034332275,-14.182999610900879 -14.031999588012695,-5.945000171661377 -67.2020034790039,-1.3279999494552612 C-67.55400085449219,-1.3279999494552612 -67.89199829101562,-1.187999963760376 -68.14099884033203,-0.9390000104904175 C-68.38999938964844,-0.6899999976158142 -68.52999877929688,-0.35199999809265137 -68.52999877929688,0 C-68.52999877929688,0.35199999809265137 -68.38999938964844,0.6899999976158142 -68.14099884033203,0.9390000104904175 C-67.89199829101562,1.187999963760376 -67.55400085449219,1.3279999494552612 -67.2020034790039,1.3279999494552612 C-14.031999588012695,5.945000171661377 -5.914999961853027,14.031999588012695 -1.3279999494552612,67.23200225830078 C-1.3279999494552612,67.58399963378906 -1.187999963760376,67.9219970703125 -0.9390000104904175,68.1709976196289 C-0.6899999976158142,68.41999816894531 -0.35199999809265137,68.55999755859375 0,68.55999755859375 C0.35199999809265137,68.55999755859375 0.6899999976158142,68.41999816894531 0.9390000104904175,68.1709976196289 C1.187999963760376,67.9219970703125 1.3279999494552612,67.58399963378906 1.3279999494552612,67.23200225830078z"/></g></g><g style="display: none;"><g><path/></g></g><g transform="matrix(-0.13158103823661804,0,0,0.13158103823661804,82.5,100.5)" opacity="0.13158103825478434" style="display: block;"><g opacity="1" transform="matrix(1,0,0,1,0,0)"><path fill="rgb(254,222,125)" fill-opacity="1" d=" M0.7850000262260437,39.715999603271484 C3.5139999389648438,8.288999557495117 8.3100004196167,3.510999917984009 39.733001708984375,0.7839999794960022 C39.941001892089844,0.7789999842643738 40.138999938964844,0.6919999718666077 40.28300094604492,0.5419999957084656 C40.426998138427734,0.3919999897480011 40.505001068115234,0.1899999976158142 40.5,-0.017999999225139618 C40.494998931884766,-0.22599999606609344 40.40700149536133,-0.4230000078678131 40.25699996948242,-0.5669999718666077 C40.106998443603516,-0.7110000252723694 39.904998779296875,-0.7889999747276306 39.696998596191406,-0.7839999794960022 C8.27400016784668,-3.510999917984009 3.4779999256134033,-8.307000160217285 0.7490000128746033,-39.715999603271484 C0.7490000128746033,-39.92399978637695 0.6660000085830688,-40.12300109863281 0.5189999938011169,-40.27000045776367 C0.3720000088214874,-40.41699981689453 0.1720000058412552,-40.5 -0.035999998450279236,-40.5 C-0.24400000274181366,-40.5 -0.4440000057220459,-40.41699981689453 -0.5910000205039978,-40.27000045776367 C-0.7379999756813049,-40.12300109863281 -0.8199999928474426,-39.92399978637695 -0.8199999928474426,-39.715999603271484 C-3.494999885559082,-8.378000259399414 -8.291999816894531,-3.510999917984009 -39.71500015258789,-0.7839999794960022 C-39.92300033569336,-0.7839999794960022 -40.12300109863281,-0.7020000219345093 -40.27000045776367,-0.5550000071525574 C-40.41699981689453,-0.40799999237060547 -40.5,-0.20800000429153442 -40.5,0 C-40.5,0.20800000429153442 -40.41699981689453,0.40799999237060547 -40.27000045776367,0.5550000071525574 C-40.12300109863281,0.7020000219345093 -39.92300033569336,0.7839999794960022 -39.71500015258789,0.7839999794960022 C-8.291999816894531,3.510999917984009 -3.496000051498413,8.288999557495117 -0.7850000262260437,39.715999603271484 C-0.7850000262260437,39.92399978637695 -0.7020000219345093,40.12300109863281 -0.5550000071525574,40.27000045776367 C-0.40799999237060547,40.41699981689453 -0.20800000429153442,40.5 0,40.5 C0.20800000429153442,40.5 0.40799999237060547,40.41699981689453 0.5550000071525574,40.27000045776367 C0.7020000219345093,40.12300109863281 0.7850000262260437,39.92399978637695 0.7850000262260437,39.715999603271484z"/></g></g><g style="display: none;"><g><path/><path fill="url(#__lottie_element_6)"/></g></g></g></svg>