<svg width="49" height="40" viewBox="0 0 49 40" fill="none" xmlns="http://www.w3.org/2000/svg">
<path d="M25.27 10.4202L15.0558 2.22345L10.153 2.87919L4.43311 6.81361L5.65881 20.5841L16.2815 29.1087L22.41 34.3546L26.0871 37.9611L30.99 33.371L36.7099 27.7972L42.4298 25.1743L46.9241 18.9448V6.81361L42.4298 2.22345L36.7099 2.87919L30.1728 7.79722L27.3128 11.0759L25.27 10.4202Z" fill="#F99BC1"/>
<path d="M5.71997 22.2951H11.4399V26.8853H5.71997L5.71997 22.2951Z" fill="#F45394"/>
<path d="M11.4399 26.8853H17.1599V31.4754H11.4399V26.8853Z" fill="#F45394"/>
<path d="M17.1599 31.4754H22.8798V36.0656H17.1599V31.4754Z" fill="#F45394"/>
<path d="M25.3313 31.4754H31.0512V36.0656H25.3313V31.4754Z" fill="#F45394"/>
<path d="M31.0513 26.8853H36.7712V31.4754H31.0513V26.8853Z" fill="#F45394"/>
<path d="M36.7712 22.2951H42.4912V26.8853H36.7712V22.2951Z" fill="#F45394"/>
<path d="M5.71997 0L15.5256 0V4.59016H5.71997L5.71997 0Z" fill="#F45394"/>
<path d="M32.6853 0L42.4909 0V4.59016H32.6853V0Z" fill="#F45394"/>
<path d="M15.5254 4.59021H21.2453V9.18037H15.5254V4.59021Z" fill="#F45394"/>
<path d="M21.2454 9.18036H26.9653V13.7705H21.2454V9.18036Z" fill="#F45394"/>
<path d="M21.2454 35.4099H26.9653V40H21.2454V35.4099Z" fill="#F45394"/>
<path d="M26.9653 4.59021H32.6853V9.18037H26.9653V4.59021Z" fill="#F45394"/>
<path d="M0 4.59015H5.71994L5.71994 22.2951H0L0 4.59015Z" fill="#F45394"/>
<path d="M42.491 4.59021H48.2109V22.2951H42.491V4.59021Z" fill="#F45394"/>
</svg>
