<svg xmlns="http://www.w3.org/2000/svg" xmlns:xlink="http://www.w3.org/1999/xlink" viewBox="0 0 512 512" width="362" height="362" preserveAspectRatio="xMidYMid meet" style="width: 100%; height: 100%; transform: translate3d(0px, 0px, 0px); content-visibility: visible;"><defs><clipPath id="__lottie_element_303"><rect width="512" height="512" x="0" y="0"/></clipPath><clipPath id="__lottie_element_305"><path d="M0,0 L512,0 L512,512 L0,512z"/></clipPath><g id="__lottie_element_325"><g style="display: none;"><g><path/></g></g></g><mask id="__lottie_element_325_1" mask-type="alpha"><use xmlns:ns1="http://www.w3.org/1999/xlink" ns1:href="#__lottie_element_325"/></mask></defs><g clip-path="url(#__lottie_element_303)"><g clip-path="url(#__lottie_element_305)" transform="matrix(1,0,0,1,0,0)" opacity="1" style="display: block;"><g transform="matrix(0,0,0,0,256,256)" opacity="1" style="display: block;"><g opacity="1" transform="matrix(1,0,0,1,0,0)"><path fill="rgb(244,83,148)" fill-opacity="1" d=" M0,-195 C107.62049865722656,-195 195,-107.62049865722656 195,0 C195,107.62049865722656 107.62049865722656,195 0,195 C-107.62049865722656,195 -195,107.62049865722656 -195,0 C-195,-107.62049865722656 -107.62049865722656,-195 0,-195z"/></g></g><g transform="matrix(1.0399999618530273,0,0,1.0399999618530273,243.15464782714844,238.30870056152344)" opacity="1" style="display: block;"><g opacity="1" transform="matrix(1,0,0,1,0,0)"><path stroke-linecap="round" stroke-linejoin="round" fill-opacity="0" stroke="rgb(101,101,101)" stroke-opacity="1" stroke-width="23" d=" M103,0.5 C133.9530029296875,3.187985897064209 146.38250732421875,79.52349853515625 184.8590087890625,83.2969970703125"/></g></g><g transform="matrix(0.7797607779502869,0,0,0.7797607779502869,245.01307678222656,258.8189392089844)" opacity="1" style="display: block;"><g opacity="1" transform="matrix(1,0,0,1,0,0)"><path fill="rgb(255,199,222)" fill-opacity="1" d=" M66.52363586425781,-218.1840362548828 C66.52363586425781,-218.1840362548828 6.175185203552246,-211.2678985595703 -22.075963973999023,-208.77218627929688 C-52.31012725830078,-206.10061645507812 -108.93329620361328,-202.68019104003906 -108.93329620361328,-202.68019104003906 C-157.9032440185547,-198.3628387451172 -194.08897399902344,-155.151123046875 -189.7619171142578,-106.18386840820312 C-189.7619171142578,-106.18386840820312 -176.432373046875,-20.88768768310547 -176.432373046875,5.443312644958496 C-176.432373046875,34.98631286621094 -177.07899475097656,83.80999755859375 -177.07899475097656,83.80999755859375 C-177.07899475097656,132.96800231933594 -141.7270050048828,176.56900024414062 -88.06999969482422,172.81900024414062 C-88.06999969482422,172.81900024414062 -29.34000015258789,169.61300659179688 0.34599998593330383,169.61300659179688 C29.374000549316406,169.61300659179688 88.06999969482422,172.81900024414062 88.06999969482422,172.81900024414062 C137.8263397216797,176.57940673828125 176.97125244140625,129.1363525390625 177.72000122070312,81.2645034790039 C177.72000122070312,81.2645034790039 178.2329559326172,20.785886764526367 175.14805603027344,-22.303298950195312 C171.76380920410156,-69.56865692138672 163.01632690429688,-137.35540771484375 163.01632690429688,-137.35540771484375 C156.47439575195312,-186.9402313232422 115.49559783935547,-222.51541137695312 66.52363586425781,-218.1840362548828z"/><path stroke-linecap="butt" stroke-linejoin="miter" fill-opacity="0" stroke-miterlimit="4" stroke="rgb(101,101,101)" stroke-opacity="1" stroke-width="6.213" d=" M66.52363586425781,-218.1840362548828 C66.52363586425781,-218.1840362548828 6.175185203552246,-211.2678985595703 -22.075963973999023,-208.77218627929688 C-52.31012725830078,-206.10061645507812 -108.93329620361328,-202.68019104003906 -108.93329620361328,-202.68019104003906 C-157.9032440185547,-198.3628387451172 -194.08897399902344,-155.151123046875 -189.7619171142578,-106.18386840820312 C-189.7619171142578,-106.18386840820312 -176.432373046875,-20.88768768310547 -176.432373046875,5.443312644958496 C-176.432373046875,34.98631286621094 -177.07899475097656,83.80999755859375 -177.07899475097656,83.80999755859375 C-177.07899475097656,132.96800231933594 -141.7270050048828,176.56900024414062 -88.06999969482422,172.81900024414062 C-88.06999969482422,172.81900024414062 -29.34000015258789,169.61300659179688 0.34599998593330383,169.61300659179688 C29.374000549316406,169.61300659179688 88.06999969482422,172.81900024414062 88.06999969482422,172.81900024414062 C137.8263397216797,176.57940673828125 176.97125244140625,129.1363525390625 177.72000122070312,81.2645034790039 C177.72000122070312,81.2645034790039 178.2329559326172,20.785886764526367 175.14805603027344,-22.303298950195312 C171.76380920410156,-69.56865692138672 163.01632690429688,-137.35540771484375 163.01632690429688,-137.35540771484375 C156.47439575195312,-186.9402313232422 115.49559783935547,-222.51541137695312 66.52363586425781,-218.1840362548828z"/></g></g><g style="display: none;"><g><path/><path stroke-linecap="butt" stroke-linejoin="miter" fill-opacity="0" stroke-miterlimit="4"/></g></g><g mask="url(#__lottie_element_325_1)" style="display: none;"><g><g><path/><path stroke-linecap="butt" stroke-linejoin="miter" fill-opacity="0" stroke-miterlimit="4"/></g></g></g><g transform="matrix(1.0399999618530273,0,0,1.0399999618530273,235.8424072265625,240.3158721923828)" opacity="1" style="display: block;"><g opacity="1" transform="matrix(1,0,0,1,0,0)"><path stroke-linecap="round" stroke-linejoin="round" fill-opacity="0" stroke="rgb(101,101,101)" stroke-opacity="1" stroke-width="23" d=" M-91,8.5 C-125.99845123291016,8.505373001098633 -138.74383544921875,92.74849700927734 -177.98248291015625,92.75454711914062"/></g></g><g style="display: none;"><g><path stroke-linecap="round" stroke-linejoin="round" fill-opacity="0"/></g></g><g style="display: none;"><g><path stroke-linecap="round" stroke-linejoin="round" fill-opacity="0"/></g></g><g transform="matrix(1.0373880863189697,-0.07364445924758911,0.07364445924758911,1.0373880863189697,240.83717346191406,235.30740356445312)" opacity="1" style="display: block;"><g opacity="1" transform="matrix(1,0,0,1,0,0)"><path stroke-linecap="round" stroke-linejoin="round" fill-opacity="0" stroke="rgb(101,101,101)" stroke-opacity="1" stroke-width="15" d=" M-34.5,-26 C-11.5,-11 20,-13.5 39.5,-27"/></g></g><g transform="matrix(1.0410009622573853,-0.1031833291053772,0.09458494931459427,0.9542532563209534,172.5387725830078,185.00770568847656)" opacity="1" style="display: block;"><g opacity="1" transform="matrix(0.2800000011920929,0,0,0.2800000011920929,0,0)"><path fill="rgb(101,101,101)" fill-opacity="1" d=" M37.46900177001953,0 C37.46900177001953,23.099000930786133 22.878000259399414,37.34600067138672 -0.22100000083446503,37.34600067138672 C-23.31999969482422,37.34600067138672 -37.46900177001953,23.099000930786133 -37.46900177001953,0 C-37.46900177001953,-23.099000930786133 -23.31999969482422,-36.8489990234375 -0.22100000083446503,-36.8489990234375 C22.878000259399414,-36.8489990234375 37.46900177001953,-23.099000930786133 37.46900177001953,0z"/><path stroke-linecap="round" stroke-linejoin="round" fill-opacity="0" stroke="rgb(101,101,101)" stroke-opacity="1" stroke-width="10" d=" M37.46900177001953,0 C37.46900177001953,23.099000930786133 22.878000259399414,37.34600067138672 -0.22100000083446503,37.34600067138672 C-23.31999969482422,37.34600067138672 -37.46900177001953,23.099000930786133 -37.46900177001953,0 C-37.46900177001953,-23.099000930786133 -23.31999969482422,-36.8489990234375 -0.22100000083446503,-36.8489990234375 C22.878000259399414,-36.8489990234375 37.46900177001953,-23.099000930786133 37.46900177001953,0z"/></g><g opacity="1" transform="matrix(0.2800000011920929,0,0,0.2800000011920929,121.58799743652344,0)"><path fill="rgb(101,101,101)" fill-opacity="1" d=" M37.46900177001953,0 C37.46900177001953,23.099000930786133 22.878000259399414,37.34600067138672 -0.22100000083446503,37.34600067138672 C-23.31999969482422,37.34600067138672 -37.46900177001953,23.099000930786133 -37.46900177001953,0 C-37.46900177001953,-23.099000930786133 -23.31999969482422,-36.8489990234375 -0.22100000083446503,-36.8489990234375 C22.878000259399414,-36.8489990234375 37.46900177001953,-23.099000930786133 37.46900177001953,0z"/><path stroke-linecap="round" stroke-linejoin="round" fill-opacity="0" stroke="rgb(101,101,101)" stroke-opacity="1" stroke-width="10" d=" M37.46900177001953,0 C37.46900177001953,23.099000930786133 22.878000259399414,37.34600067138672 -0.22100000083446503,37.34600067138672 C-23.31999969482422,37.34600067138672 -37.46900177001953,23.099000930786133 -37.46900177001953,0 C-37.46900177001953,-23.099000930786133 -23.31999969482422,-36.8489990234375 -0.22100000083446503,-36.8489990234375 C22.878000259399414,-36.8489990234375 37.46900177001953,-23.099000930786133 37.46900177001953,0z"/></g></g></g></g></svg>